<svg xmlns="http://www.w3.org/2000/svg" width="294" height="57" viewBox="0 0 294 57">
    <path fill="#000" fill-rule="evenodd" d="M29.525.47c15.19 0 29.19 11.2 29.19 27.16 0 17.08-12.25 29.12-29.19 29.12S.335 44.71.335 27.63c0-15.96 14-27.16 29.19-27.16zm0 13.3c-8.19 0-14.91 6.65-14.91 13.93 0 9.1 6.72 15.75 14.91 15.75 8.19 0 14.91-6.65 14.91-15.75 0-7.28-6.72-13.93-14.91-13.93zM87.085 55V2.22h13.72l25.13 32.27h.14V2.22h13.72V55h-13.72l-25.13-32.34h-.14V55h-13.72zm97.32-25.34l-19.46-27.44h16.45l9.87 14.35 9.87-14.35h16.45l-19.46 27.44V55h-13.72V29.66zm73.94-2.87l-16.87-24.57h16.87l8.05 13.65 8.05-13.65h16.87l-16.87 24.57L293.975 55h-16.52l-11.06-17.22L254.285 55h-16.59l20.65-28.21z"/>
</svg>
